# xmcd
# Track frame offsets:
# 150
# 16085
# 28262
# 46557
# 64512
# 76605
# 88405
# 105010
# 118760
# 134087
# 151985
# 164282
# 177185
# 189542
#
# Disc length: 2791 seconds
# Revision: 0
# Processed by: cddbd v1.4PL0 Copyright (c) Steve Scherf et al.
# Submitted via: VisiTrax 2.9.3.171 - For more info visit www.synapsa.com
#
DISCID=a40ae50e
DTITLE=Various Artist - Mr Music Country 6-99
DYEAR=1900
DGENRE=
TTITLE0=Jody Jenkins - Louisiana Heatwave
TTITLE1=Masha Britton - Bad News Boy
TTITLE2=Roy Wayne and Thunder Ridge - It Shouldn't Hurt To Be a Child
TTITLE3=J. T. Steele - Tar Paper Shack
TTITLE4=Kelly Willis with Dale Watson - It's a Cheatin' Situation
TTITLE5=Red Jenkins and Charlie Walker - Pick Me Up On Your Way Down
TTITLE6=Montana Rose with Kenny Williams - I Should've Took That Train
TTITLE7=David Price - White Lace And Levis
TTITLE8=Candee Land - We Still Sing Love Songs (In Texas)
TTITLE9=Benny Berry - In My Next Life
TTITLE10=Billy O'Rourke - Honky Tonk Heaven
TTITLE11=Kenny Post - Truckin'Fever
TTITLE12=Marion Randell and Larry Butler - Ring On  The BAr
TTITLE13=Billy Mata with Franchie Burke - Faded Love
EXTD=
EXTT0=
EXTT1=
EXTT2=
EXTT3=
EXTT4=
EXTT5=
EXTT6=
EXTT7=
EXTT8=
EXTT9=
EXTT10=
EXTT11=
EXTT12=
EXTT13=
PLAYORDER=
